<?xml version="1.0" encoding="utf-8"?>
<!DOCTYPE svg PUBLIC "-//W3C//DTD SVG 1.1//EN" "http://www.w3.org/Graphics/SVG/1.1/DTD/svg11.dtd">
<svg version="1.1" xmlns="http://www.w3.org/2000/svg" xmlns:xlink="http://www.w3.org/1999/xlink" width="512" height="512" viewBox="0 0 512 512">
<path fill="#7DC037" d="M493.267 152.823l-134.089-134.089c-4.375-4.375-10.146-3.391-12.823 2.187l-17.978 37.455 125.249 125.249 37.455-17.978c5.578-2.678 6.563-8.448 2.187-12.823z"></path>
<path fill="#797C80" d="M304.462 79.462l-123.462 10.289c-8.203 1.016-15.037 2.764-17.386 13.478-0.003 0.011-0.006 0.019-0.008 0.031-33.479 160.814-147.606 317.741-147.606 317.741l26.894 26.894 127.493-127.495c-2.81-5.873-4.387-12.452-4.387-19.399 0-24.853 20.147-45 45-45s45 20.147 45 45-20.147 45-45 45c-6.947 0-13.524-1.577-19.399-4.387l-127.495 127.493 26.893 26.894c0 0 156.927-114.126 317.741-147.606 0.011-0.003 0.019-0.005 0.031-0.009 10.713-2.349 12.462-9.183 13.478-17.386l10.289-123.462-128.077-128.077z"></path>
</svg>
